# xmcd CD database file
#
# Track frame offsets:
#	150
#	16737
#	34340
#	49300
#	65177
#	79410
#	95615
#	108630
#	122610
#	135895
#	153125
#	167570
#	182827
#	199207
#
# Disc length: 2834 seconds
#
# Revision: 0
# Processed by: cddbd v1.5.2PL0 Copyright (c) Steve Scherf et al.
# Submitted via: CDex 1.51
#
DISCID=bd0b100e
DTITLE=Hilljack - Stand-up
DYEAR=2005
DGENRE=Country
TTITLE0=This Could Get Good
TTITLE1=Bigger Than Dallas
TTITLE2=You Still Think About Me
TTITLE3=Stand Up
TTITLE4=Luv Sux
TTITLE5=My Side Of Town
TTITLE6=I Kissed Miss Mississippi
TTITLE7=Dead And Gone
TTITLE8=Not Susan
TTITLE9=In California
TTITLE10=The Day Katherine Gregory Died
TTITLE11=Texas 101
TTITLE12=Loud Enough
TTITLE13=Throw-down Hoe-down
EXTD=YEAR: 2005
EXTT0=
EXTT1=
EXTT2=
EXTT3=
EXTT4=
EXTT5=
EXTT6=
EXTT7=
EXTT8=
EXTT9=
EXTT10=
EXTT11=
EXTT12=
EXTT13=
PLAYORDER=
